<svg xmlns="http://www.w3.org/2000/svg" xmlns:xlink="http://www.w3.org/1999/xlink" width="675.866" height="707.797" viewBox="0 0 675.866 707.797">
  <defs>
    <clipPath id="clip-path">
      <rect id="Rectangle_272" data-name="Rectangle 272" width="295.498" height="308.988" fill="#fff" stroke="#707070" stroke-width="1"/>
    </clipPath>
  </defs>
  <g id="Group_575" data-name="Group 575" transform="translate(-1244.134 -233.494)">
    <g id="Group_194" data-name="Group 194" transform="translate(1244.134 233.494)">
      <path id="Path_280" data-name="Path 280" d="M6.018,22.459C14.994,8.587,38.658-9.365,70.481,5.731S109.649,52.65,98.633,70.6s-35.9,22.032-55.9,22.848S6.426,74.682,3.162,65.706-2.958,36.331,6.018,22.459Z" transform="translate(481.446 447.386) rotate(-16)" fill="#d6f0f5"/>
      <g id="Mask_Group_16" data-name="Mask Group 16" transform="matrix(-0.122, 0.993, -0.993, -0.122, 675.866, 37.656)" clip-path="url(#clip-path)">
        <g id="Group_192" data-name="Group 192" transform="translate(88.191 102.243) rotate(-16)">
          <path id="Path_281" data-name="Path 281" d="M37.656,55.209c5.553-6.715,49.88-60.232,100.7-54.826S228.63,61.47,233.5,102.554s-18.38,107.577-88.657,128.12S30.774,202.023,22.666,192.833s-32.435-55.681-18.38-83.251S32.1,61.924,37.656,55.209Z" transform="translate(0 1.013)" fill="#f2f4f4"/>
          <path id="Path_282" data-name="Path 282" d="M6.018,22.459C14.994,8.587,38.658-9.365,70.481,5.731S109.649,52.65,98.633,70.6s-35.9,22.032-55.9,22.848S6.426,74.682,3.162,65.706-2.958,36.331,6.018,22.459Z" transform="translate(9.102 0)" fill="#d6f0f5"/>
        </g>
      </g>
      <g id="Group_193" data-name="Group 193" transform="translate(489.534 81.067) rotate(74)">
        <path id="Path_141" data-name="Path 141" d="M81.381,119.315C93.381,104.8,189.179-10.856,299,.827S494.1,132.845,504.619,221.635,464.9,454.126,313.018,498.521,66.508,436.6,48.984,416.741-21.112,296.4,9.262,236.823,69.381,133.826,81.381,119.315Z" transform="translate(0 0)" fill="#f8f8f8"/>
      </g>
    </g>
    <g id="Group_572" data-name="Group 572" transform="translate(1330.792 368.549)">
      <path id="Path_97" data-name="Path 97" d="M30.239,16A15.816,15.816,0,0,1,45.853,28.852a13.085,13.085,0,0,1-2.5,25.936H15.408a11.377,11.377,0,0,1-1.034-22.709A15.8,15.8,0,0,1,30.239,16Z" transform="translate(69.315 6.784)" fill="#f29441"/>
      <path id="Path_98" data-name="Path 98" d="M43.99,40a1.533,1.533,0,0,1,1.158.445l6.274,5.7a1.727,1.727,0,0,1,.107,2.424,1.791,1.791,0,0,1-2.424.107l-3.4-3.1V56.542a1.711,1.711,0,0,1-3.422,0V45.579l-3.4,3.1a1.829,1.829,0,0,1-2.424-.107,1.722,1.722,0,0,1,.107-2.424l6.274-5.7A1.443,1.443,0,0,1,43.99,40Z" transform="translate(55.564 -3.526)" fill="#fff"/>
      <path id="Path_6300" data-name="Path 6300" d="M175.631,570.592l.321.047V558.832a.2.2,0,0,0-.218-.02,1.689,1.689,0,0,0-.47,1.465q-.039,4.466,0,8.932A1.932,1.932,0,0,0,175.631,570.592Z" transform="translate(283.63 -17.38)" fill="#a9a5b9"/>
      <path id="Path_6301" data-name="Path 6301" d="M450.415,636.064c.93-.5,2.452-.559,2.729-1.408.27-.824-.487-2-.837-3.007-9.72-27.859-19.839-55.568-31.6-82.648-3.613-8.32-7.656-16.454-10.5-25.1-4.2-12.789-7.431-25.833-10.459-38.937-3.829-16.575-7.166-33.266-11.525-49.72Q387,430.6,385.595,426c-.282-.928-.207-1.329.8-1.708a75.916,75.916,0,0,0,20.895-12.265,2.33,2.33,0,0,0,.261-.295,3.687,3.687,0,0,0-3.579-1.139,88.208,88.208,0,0,1-14.373,8.783c-1.26.578-2.56,1.059-3.812,1.641-.912.425-1.352.246-1.648-.742-.692-2.31-1.6-4.547-2.5-6.782a2.449,2.449,0,0,0-.742-1.247,3.722,3.722,0,0,0-2.479.239c-14.543,3.719-29.155,7.135-43.9,9.959-11.5,2.2-23.037,4.1-34.69,5.27-3.507.35-7.01.714-10.539.792a4.1,4.1,0,0,0-2.671.654c-4.523,8.82-8.906,17.7-13.052,26.707a691.116,691.116,0,0,0-36.016,95.562A489.709,489.709,0,0,0,226,599.663c-1.715,9.29-3.128,18.628-4.144,28.025-.923,8.522-1.605,17.058-1.829,25.628-.026,1-.309,1.8-1.506,1.756s-1.456-.846-1.409-1.844c.252-5.348.477-10.7.936-16.036.455-5.289,1-10.569,1.674-15.835,1.063-8.356,2.429-16.659,4-24.933,2.864-15.082,6.523-29.968,10.775-44.712a691.43,691.43,0,0,1,38.251-100.9,2.8,2.8,0,0,0,.162-2.153c-1.655-5.716-1.268-11.469-.186-17.222a3.1,3.1,0,0,0,.009-1.413q-1.334,1.952-2.668,3.9a304.278,304.278,0,0,0-40.352,86.306c-5.431,18.562-9.959,37.337-13.725,56.306q-3.909,19.681-6.868,39.522c-1.475,9.791-2.819,19.6-3.868,29.453q-.587,5.523-1.236,11.038c-.082.7.045,1.033.82,1.169,3.553.63,7.094,1.325,10.639,2a2.5,2.5,0,0,0,1.689.707q28.719,5.377,57.421,10.848a3.322,3.322,0,0,0,1.976-.007c2.556.432,2.575.436,3.132-2.092q5.358-24.345,10.317-48.773c2.906-14.275,5.7-28.572,8.249-42.915,1.318-7.418,2.381-14.881,3.738-22.293,1.713-9.36,4.8-18.331,8.225-27.179,5.343-13.782,11.6-27.166,17.837-40.559.052-.112.108-.22.272-.557.3,3.3.641,6.372.859,9.45a198.1,198.1,0,0,0,5,31.271c6.182,26.3,14.94,51.8,24.381,77.072q11.051,29.586,23.693,58.528c.565,1.3,1.027,1.346,2.194.813,2.914-1.331,5.9-2.5,8.853-3.74.725.2,1.3-.237,1.9-.49q21.652-9.175,43.3-18.352c3.5-1.48,6.974-3,10.488-4.437C449.541,636.793,450.128,636.649,450.415,636.064Z" transform="translate(-47.224 -145.525)" fill="#037a92"/>
      <path id="Path_6302" data-name="Path 6302" d="M338.39,491.559c7.073-.436,14.135-.994,21.161-1.926q13.431-1.778,26.726-4.387,22.768-4.421,45.206-10.306c.356-.093.748-.337,1.158-.121,1.734.06,3.274-.751,4.914-1.115s3.276-.844,4.9-1.32c1.944-.569,1.978-.626,1.113-2.534a24.369,24.369,0,0,1,3.255.772c2.479.718,4.983,1.361,7.425,2.2a6.393,6.393,0,0,0,1.7.295,9.946,9.946,0,0,1,3.378,1.01,11.539,11.539,0,0,1,2.153.677c1.394.753,2.41.321,3.561-.61,6.035-4.882,10.194-11.128,13.337-18.122.8-1.784,1.493-3.618,2.237-5.429.078-.375-.17-.589-.414-.774a19.187,19.187,0,0,0-5.535-2.925,1.254,1.254,0,0,0-1.685.641,6.483,6.483,0,0,1-3.525,3.123,1.687,1.687,0,0,0-1.111,1.79c-.007,1.383,0,2.767-.007,4.15a10.605,10.605,0,0,1-10.816,10.889c-4.5.054-9.012-.058-13.514.047a3.4,3.4,0,0,1-3.574-1.971c-.117-.239-.3-.44-.432-.673a179.914,179.914,0,0,1-11.344-20.951,217.007,217.007,0,0,1-9.351-23.654c-1.905-5.766-3.555-11.611-5.011-17.511a186.079,186.079,0,0,0-7.071-23.316c-.2-.5-.246-1.044-.453-1.542-.069-.168-.16-.323-.231-.487-.548-1.253-.371-1.54,1.027-1.682a11.83,11.83,0,0,1,1.206-.035q24.206,0,48.415,0a10.529,10.529,0,0,1,9.515,5,11.368,11.368,0,0,1,1.6,6.279q-.008,23.943,0,47.885c0,.537.019,1.074.006,1.609a1.959,1.959,0,0,0,1.374,2.06,5.714,5.714,0,0,1,3.788,4.5,2.059,2.059,0,0,0,1.411,1.657,27.88,27.88,0,0,1,5.559,2.644,1.016,1.016,0,0,0,1.128.153,83.207,83.207,0,0,0,3.473-15.928,96.03,96.03,0,0,0,.341-22.323c-2.755-25.729-15.544-44.284-39.334-54.91a83.888,83.888,0,0,0-27.845-6.7,121.948,121.948,0,0,0-32.917,2.028c-.927.179-1.178-.1-1.326-.882-.341-1.8-.764-3.583-1.059-5.388-.145-.889-.488-1.193-1.4-1.087q-13.632,1.594-27.274,3.134c-4.3.49-8.605.981-12.914,1.413-.919.091-1.258.246-.945,1.281.681,2.261,1.191,4.573,1.827,6.849.185.662.16.912-.626,1.036-11.135,1.756-21.892,5.039-32.7,8.115a220.672,220.672,0,0,1-22.086,5.4c-11.139,1.963-20.257-1.415-27.483-10-4.515-5.365-7.843-11.484-10.917-17.751-.587-1.195-1.251-2.355-1.881-3.529-1.106.14-1.793,1.042-2.731,1.49a166.85,166.85,0,0,0-15.438,11.474,57.864,57.864,0,0,0-11.719,13.261,10.794,10.794,0,0,0-1.642,3.576c-1.234,2.146-.68,4.249.049,6.406a92.926,92.926,0,0,0,15.2,27.373c8.054,10.335,17.582,18.98,29.267,25.095a65.323,65.323,0,0,0,28.89,7.455,125.993,125.993,0,0,0,27.05-2.079c.876-.166.947.1.927.848-.194,7.013-.244,14.03.034,21.042.384,9.728,1.2,19.424,2.537,29.069.283,2.034.652,4.057.856,6.1a1.367,1.367,0,0,0,1.48,1.445c2.22.188,4.435.455,6.652.69a1,1,0,0,0,.71.332c2.168,0,4.355.38,6.495-.268Z" transform="translate(-98.998 -207.923)" fill="#f29441"/>
      <path id="Path_6303" data-name="Path 6303" d="M272.023,531.5q-20.66,8.739-41.316,17.479c-5.267,2.232-10.52,4.495-15.781,6.745a44.731,44.731,0,0,1-.449,9.191c.91,1.327,2.493,1.633,3.749,2.429,1.232.783,2.554,1.441,3.852,2.129.481.257,1.417.472,1.012,1.27s-1.113.216-1.622-.058c-1.957-1.055-3.883-2.17-5.839-3.227-.442-.237-.848-.721-1.441-.33a23.589,23.589,0,0,1-.863,3.727c-.069.682.544.852.921,1.169,1.609,1.348,3.346,2.534,4.965,3.872a4.3,4.3,0,0,1,.608.524c.242.287.434.615.157.96-.3.38-.649.172-.945-.037-1.611-1.13-3.113-2.4-4.7-3.553-.464-.337-.833-1-1.592-.734a28.626,28.626,0,0,1-6.838,10.734c-4.405,4.554-7.8,9.765-9.066,16.117a16.367,16.367,0,0,0,.382,8.462c.337,1.027.742,1.266,1.816.852q24.147-9.315,48.325-18.549,20.232-7.754,40.475-15.487c1.147-.436,1.232-.865.809-1.92q-8.247-20.548-16.417-41.126C272.14,531.933,272.088,531.715,272.023,531.5Z" transform="translate(131.169 -40.963)" fill="#023843"/>
      <path id="Path_6304" data-name="Path 6304" d="M395.706,555.735q-18.476-3.526-36.948-7.047c-8.042-1.523-16.092-3-24.138-4.5a62.419,62.419,0,0,1-5.4,13.055c-.194.587.188,1.025.414,1.49.817,1.678,1.665,3.341,2.5,5.013a3.35,3.35,0,0,1,.39.988.634.634,0,0,1-.253.7c-.349.2-.585-.026-.785-.282a5.277,5.277,0,0,1-.526-.926c-.675-1.352-1.35-2.705-2.049-4.046-.192-.371-.242-.96-.9-.9a26.871,26.871,0,0,1-3.617,4.91c-.377.574.045,1.025.263,1.48.673,1.408,1.389,2.795,2.084,4.193a4.606,4.606,0,0,1,.418.982c.084.358.132.755-.263.942-.434.205-.656-.162-.822-.472-.779-1.454-1.467-2.957-2.243-4.411-.226-.425-.291-1.064-1.007-1.04a24.128,24.128,0,0,1-6.385,4.355c-5.63,2.671-10.753,6.029-14.468,11.186a18.366,18.366,0,0,0-3.5,8.723c-.242,2.088.006,2.228,2.094,2.17,4.868-.136,9.739-.149,14.61-.19,13.137-.11,26.279-.133,39.416-.338,9.159-.144,18.318-.164,27.477-.246,4.379-.039,8.756-.138,13.136-.168.815-.006,1.174-.134,1.148-1.087q-.442-16.342-.8-32.688A3.882,3.882,0,0,1,395.706,555.735Z" transform="translate(-166.364 -29.999)" fill="#023843"/>
      <path id="Path_6305" data-name="Path 6305" d="M209.464,447.825a12.254,12.254,0,0,0,1.372,2.274,1.079,1.079,0,0,0,1,.556c5.718-.073,11.454.351,17.146-.179,5.567-.516,9.353-5.02,9.45-10.656.028-1.609.035-3.218-.009-4.827a.965.965,0,0,1,.817-1.139,5.748,5.748,0,0,0,3.827-3.277c.261-.557.449-.794,1.16-.522a20.692,20.692,0,0,1,6.137,3.415,21.372,21.372,0,0,1,8.488,15.054,42.919,42.919,0,0,1,.188,4.948q.014,53.987.007,107.978a24.883,24.883,0,0,0,19.61,24.655,27.108,27.108,0,0,0,5.308.593c4.551.129,9.118-.345,13.654.332,8.686,1.3,16.445,9.012,17.85,17.7A26.6,26.6,0,0,1,315.8,609q-.006,55.866.026,111.734c0,1.187-.285,1.629-1.491,1.937a10.712,10.712,0,0,0-7.925,10.38c-.009,3.264.02,6.529-.017,9.793-.009.824.149,1.165,1.091,1.16,6.838-.05,13.678-.037,20.518-.043l.1-11.78a10.662,10.662,0,0,0-7.947-9.532c-1.268-.313-1.448-.82-1.448-1.959q.045-55.8.022-111.606a24.938,24.938,0,0,0-18.9-24.571,29.776,29.776,0,0,0-7.034-.755c-3.753-.069-7.507.2-11.255-.155A22.133,22.133,0,0,1,262.3,565.79a33.251,33.251,0,0,1-.429-5.733q-.025-54.328,0-108.656a24.732,24.732,0,0,0-10.19-20.654,4.354,4.354,0,0,1-.373-.369,28.661,28.661,0,0,0-6.963-3.292,1.023,1.023,0,0,1-.749-.99,5.749,5.749,0,0,0-4.374-5.162c-.945-.272-.79-.908-.79-1.549,0-13.684.022-27.365-.019-41.049-.009-3.66.324-7.336-.2-10.979a10.516,10.516,0,0,0-10.412-9.139q-25.017-.059-50.029-.007c-2.809,0-2.979.4-1.467,3.057a4.4,4.4,0,0,0,2.36.3q20.909.011,41.815.006c2.511,0,2.513,0,2.513,2.483v80.694c0,2.608,0,2.608-2.664,2.61-2.994,0-5.986-.011-8.98.009C210.7,447.372,209.993,447.264,209.464,447.825Z" transform="translate(131.256 -190.745)" fill="#1c1d29"/>
      <path id="Path_6306" data-name="Path 6306" d="M397.707,428.57l1.868-3.488a4.356,4.356,0,0,0,.009-1.068c-1.663-7.655-2.069-15.5-3.5-23.19-.147-.79-.3-1.581-.483-2.364a1.394,1.394,0,0,0-1.629-1.2c-1.887.069-2.224-.336-2.364-2.205-.091-1.223.281-2.392.265-3.6a5.41,5.41,0,0,0,.006-.651c.2-3.369.789-6.586,3.52-8.963.2-.175.391-.365.608-.526,1.292-.949,1.635-.845,2.168.651a4.656,4.656,0,0,0,.725,1.573,1.247,1.247,0,0,0,1.577.324,1.07,1.07,0,0,0,.636-1.327,6.665,6.665,0,0,0-1-2.614,2.423,2.423,0,0,1-.069-2.761,6.937,6.937,0,0,1,3.536-3.143,16.6,16.6,0,0,1,3.154-1.126c1.583-.393,1.719-.606,1.359-2.254a71.826,71.826,0,0,0-2.157-7.888c-.608-1.777-1.217-3.553-1.778-5.345a3.592,3.592,0,0,1,.047-2.992c.57-1.016,1.119-1.191,2.043-.492a11.464,11.464,0,0,1,2.593,2.7,61.832,61.832,0,0,1,9.142,21.458c.078.349.136.7.214,1.051.4,1.812.906,2.036,2.362.96.369-.272.544-.164.779.073,1.572,1.59,3.19,3.134,4.72,4.763a2.639,2.639,0,0,1,.507,1.892,69.882,69.882,0,0,1-.621,11.1,2.311,2.311,0,0,0,.835,2.468l2.463-1.611c.188-2.752.382-5.5.556-8.255.041-.656.006-1.318.006-2.295,1.577,1.54,2.934,2.858,4.282,4.185a4.766,4.766,0,0,0,3.565,1.56,3.386,3.386,0,0,0,3.277-2.108,3.087,3.087,0,0,0-.807-3.66c-3.443-3.449-6.875-6.909-10.347-10.328a5.6,5.6,0,0,1-1.559-2.707c-1.078-4.148-2.685-8.057-5.889-11.061-1.836-1.719-3.833-3.262-6.568-3.132-.611.028-.723-.369-.928-.755a39.054,39.054,0,0,0-4.383-6.862,10.969,10.969,0,0,0-2.9-2.56,4.075,4.075,0,0,0-4.961.367,1.007,1.007,0,0,1-1.176.237,4.348,4.348,0,0,0-3.259-.125,2.717,2.717,0,0,1-.932.024q-26.219,0-52.438.03c-1.148,0-1.355-.313-1.355-1.4q.053-34.337,0-68.674c0-1.107.244-1.417,1.372-1.385,2.964.084,3.028.022,2.942-2.923-.034-1.139.291-1.368,1.387-1.366q36.076.053,72.152,0c1.091,0,1.4.222,1.394,1.363-.048,11.847-.03,23.7-.03,35.544a5.63,5.63,0,0,0,.034,1.2,1.458,1.458,0,0,0,2.856-.019,5.886,5.886,0,0,0,.034-1.2c0-12.787-.017-25.574.028-38.361.006-1.148-.227-1.458-1.43-1.456q-37.483.062-74.967.058c-1.141,0-1.506-.211-1.462-1.426.1-2.891.032-2.893-2.849-2.893-2.593,0-5.186.024-7.778-.017-.71-.011-.9.2-.889.9q.053,4.829,0,9.657c-.008.731.157,1.107.947.975a1.165,1.165,0,0,1,.268,0c1.009.076,2.388-.449,2.931.227.509.634.183,1.956.185,2.975q.006,34.807-.026,69.613c0,1.216.291,1.536,1.523,1.534,18.24-.043,36.48-.021,54.718-.056,1.044,0,1.577.242,1.924,1.277a10.753,10.753,0,0,0,2.36,3.853,2.669,2.669,0,0,1,.57.889c1.031,2.938,2.058,5.878,2.809,8.909.194.781.05,1.042-.7,1.32-2.507.925-4.94,2.155-6.215,4.592a9.559,9.559,0,0,1-3.484,3.749,10.88,10.88,0,0,0-4.594,6.7,34.683,34.683,0,0,0-.886,11.143,3.949,3.949,0,0,0,3.5,3.962c.628.129.742.371.843.928,1.009,5.623,1.618,11.3,2.368,16.959A35.945,35.945,0,0,0,397.707,428.57Z" transform="translate(-281.735 -268.374)" fill="#1c1d29"/>
      <path id="Path_6307" data-name="Path 6307" d="M323.023,338.985a26.407,26.407,0,0,0-8.091-18.361c-3.365-3.4-7.01-6.46-11.788-7.524-3.234-.72-6.044-2.282-8.984-3.62a26.756,26.756,0,0,0-7.474-2.386c-5.011-.684-6.251,3.029-5.4,6.605.224.938,1.327,1.786.921,2.617-.382.783-1.5,1.193-2.269,1.8-5.391,4.3-8.631,9.991-10.682,16.461a36.081,36.081,0,0,0-1.956,12.466c.336,8.221,4.474,13.909,11.665,17.509a27.622,27.622,0,0,0,21.776,1.765,10.9,10.9,0,0,1,2.246-.244,12.27,12.27,0,0,0,5.854-2.45,35.588,35.588,0,0,0,13.63-19.59,12.027,12.027,0,0,0,.378-1.965C322.95,341.1,322.965,340.111,323.023,338.985Z" transform="translate(-35.022 -234.981)" fill="#1c1d29"/>
      <path id="Path_6308" data-name="Path 6308" d="M335.894,405.017q19.882-8.753,39.671-17.6c.969-.429,1.23-.207,1.6.671q8.529,19.3,17.114,38.572c.969,2.181.969,2.181-1.081,3.5,13.945,0,27.666.019,41.387-.019,1.23-.021,1.529.3,1.529,1.529q-.056,43.736,0,87.469c0,1.176-.242,1.549-1.491,1.531q-43.736-.056-87.452.019c-1.324,0-1.678-.28-1.678-1.661q.084-43.593.056-87.19a6.978,6.978,0,0,0-.634-2.945c-3.262-7.327-6.488-14.672-9.806-21.961C334.607,405.816,334.868,405.464,335.894,405.017ZM348.4,516.406c0,1.156.317,1.361,1.4,1.34,13.684-.037,27.349-.017,41.032-.017s27.367-.02,41.032.037c1.119,0,1.4-.261,1.38-1.38q-.028-41.051,0-82.083c.019-1.137-.28-1.381-1.38-1.381q-41.051.059-82.083,0c-1.119,0-1.38.282-1.38,1.4Q348.459,475.347,348.4,516.406Z" transform="translate(-274.102 -165.672)" fill="#1c1d29"/>
      <path id="Path_6309" data-name="Path 6309" d="M399.725,422.158c3.268,6.092,7.875,8.943,13.324,8.309a12.869,12.869,0,0,0,11.1-9.318c1.568-5.563-.434-10.419-6.152-14.771q4.116-3.565,8.2-7.1c3.514-3.035,7.015-6.087,10.567-9.079.735-.619.7-1,.08-1.644a44.491,44.491,0,0,0-11.562-8.8,2.053,2.053,0,0,1-1.311-2.118c.048-13.637.019-27.274.058-40.913,0-1.1-.257-1.394-1.383-1.393q-29.239.059-58.478,0c-1.173,0-1.354.36-1.352,1.424q.048,29.242-.011,58.486c0,1.26.39,1.426,1.5,1.419,7.064-.048,14.127,0,21.191-.047,1.1-.006,1.445.084,1.314,1.406-.679,6.866.917,13.376,3.471,19.688a51.109,51.109,0,0,0,3.682,7.407c.813,1.337.805,1.335,2.03.267S398.469,423.241,399.725,422.158Z" transform="translate(-327.382 -210.503)" fill="#1c1d29"/>
      <path id="Path_6310" data-name="Path 6310" d="M303.758,420.582l-7.205-.063a47.623,47.623,0,0,0-1.381,13.24c.061.977.188,1.95.321,3.3C298.346,431.369,301.053,425.976,303.758,420.582Z" transform="translate(-67.634 -136.881)" fill="#1c1d29"/>
      <path id="Path_6311" data-name="Path 6311" d="M413.247,372.054a1.4,1.4,0,0,0,.872,1.512,1.534,1.534,0,0,0,1.872-.621q2.553-3.1,5.138-6.174,3.649-4.368,7.3-8.73c.854-1.023.949-2.047.186-2.567-1-.679-1.732-.188-2.4.621q-6.163,7.413-12.347,14.808C413.555,371.277,413.187,371.635,413.247,372.054Z" transform="translate(-413.24 -193.374)" fill="#1c1d29"/>
      <path id="Path_6312" data-name="Path 6312" d="M338.74,413.773a1.688,1.688,0,0,0-.723-1.363q-6.985-6.25-13.947-12.528c-.779-.7-1.575-.99-2.332-.171-.828.895-.371,1.685.429,2.4q6.932,6.208,13.84,12.448a1.632,1.632,0,0,0,1.93.492A1.36,1.36,0,0,0,338.74,413.773Z" transform="translate(-151.443 -155.295)" fill="#1c1d29"/>
      <path id="Path_6313" data-name="Path 6313" d="M330.976,295.874c2.725-.623,5.677-1.3,8.626-1.976q1.5-.344,2.987-.712a1.4,1.4,0,0,0,1.227-1.756,1.383,1.383,0,0,0-1.833-1.107q-5.858,1.328-11.706,2.724a1.375,1.375,0,0,0-1.167,1.678C329.251,295.64,329.855,295.985,330.976,295.874Z" transform="translate(-171.072 -249.452)" fill="#131245"/>
      <path id="Path_6314" data-name="Path 6314" d="M388.641,428.164a1.284,1.284,0,0,0,.876,1.361,1.562,1.562,0,0,0,1.87-.643c1.346-1.885,2.722-3.749,4.086-5.621q.982-1.351,1.961-2.7a1.406,1.406,0,0,0-.2-2.129c-.833-.66-1.6-.356-2.179.438q-3.045,4.147-6.074,8.307A1.682,1.682,0,0,0,388.641,428.164Z" transform="translate(-336.07 -138.999)" fill="#1c1d29"/>
      <path id="Path_6315" data-name="Path 6315" d="M388.642,323.537a1.812,1.812,0,0,0,.485,1.2q2.939,3.554,5.858,7.125c.641.783,1.415,1.2,2.291.462s.619-1.559-.032-2.343q-2.942-3.554-5.865-7.123a1.583,1.583,0,0,0-1.9-.582A1.3,1.3,0,0,0,388.642,323.537Z" transform="translate(-336.078 -221.884)" fill="#131245"/>
      <path id="Path_6316" data-name="Path 6316" d="M355.154,388.416a1.5,1.5,0,0,0-1.34.723q-2.391,2.975-4.8,5.93c-.623.762-.755,1.573.039,2.233a1.417,1.417,0,0,0,2.2-.36q2.447-3.017,4.9-6.029a1.472,1.472,0,0,0,.306-1.724A1.267,1.267,0,0,0,355.154,388.416Z" transform="translate(-220.019 -164.632)" fill="#1c1d29"/>
      <path id="Path_6317" data-name="Path 6317" d="M232.536,551.647q3.733,2.008,7.468,4.016c.423.226.822.541,1.359.313a.962.962,0,0,0,.606-.815c.086-.664-.416-.908-.889-1.169q-4.127-2.276-8.255-4.558a1.067,1.067,0,0,0-1.331.757C231.248,551.068,232.124,551.206,232.536,551.647Z" transform="translate(112.821 -25.48)" fill="#fff"/>
      <path id="Path_6318" data-name="Path 6318" d="M234.055,554.9q2.989,2.24,5.977,4.485c.494.371.982.943,1.585.207.617-.757.177-1.32-.44-1.8q-3.263-2.55-6.532-5.091c-.578-.295-1.076-.328-1.421.36C232.737,554.034,233.605,554.369,234.055,554.9Z" transform="translate(109.849 -22.81)" fill="#fff"/>
      <path id="Path_6319" data-name="Path 6319" d="M335.733,556.956c.954,1.844,1.926,3.678,2.856,5.533.319.636.613,1.281,1.465.846.8-.41.583-1.087.282-1.721q-1.51-3.171-3.033-6.333c-.418-.531-.833-1.105-1.609-.559-.729.513-.475,1.128-.138,1.743A3.335,3.335,0,0,1,335.733,556.956Z" transform="translate(-179.269 -21.085)" fill="#fff"/>
      <path id="Path_6320" data-name="Path 6320" d="M332.7,553.235c.964,1.894,1.92,3.79,2.9,5.678.323.623.623,1.462,1.547,1,.841-.42.6-1.158.254-1.846q-1.751-3.434-3.486-6.875C332.3,551.13,332.048,551.557,332.7,553.235Z" transform="translate(-171.048 -23.949)" fill="#fff"/>
      <path id="Path_6321" data-name="Path 6321" d="M253.6,412.46a58.672,58.672,0,0,0-7.724-2.479c-1.777-.548-3.6-.96-5.552-1.473.211,1.014,1.048,1.471,1.314,2.416q-5.067,1.381-10.119,2.753a2.836,2.836,0,0,0-1.229.481c1.051,2.834,2.151,5.652,3.128,8.514.3.865.591.941,1.376.632A73.241,73.241,0,0,0,253.6,412.46Z" transform="translate(103.347 -147.261)" fill="#fff"/>
      <path id="Path_6322" data-name="Path 6322" d="M258.279,454.6a1.2,1.2,0,0,0,.9,1.4,1.452,1.452,0,0,0,1.814-.733,46.556,46.556,0,0,0,2.606-4.8,7.612,7.612,0,0,1,5.514-4.737c3.236-.906,6.357-2.218,9.528-3.356.209-.075.414-.158.623-.233a1.432,1.432,0,1,0-.943-2.7c-4.812,1.68-9.608,3.4-14.411,5.1a1.391,1.391,0,0,0-.727.74q-2.3,4.206-4.618,8.4A1.421,1.421,0,0,0,258.279,454.6Z" transform="translate(24.493 -120.626)" fill="#fff"/>
      <path id="Path_6323" data-name="Path 6323" d="M264.634,446.472c4.247-.009,8.494-.043,12.74-.009.912.007,1.29-.1,1.288-1.188q-.056-42.184-.006-84.367c0-.973-.282-1.15-1.191-1.148q-22.195.045-44.39.026c-.531,0-1.064.084-1.6.129,1.3,3.88,2.668,7.739,3.9,11.642,2.291,7.265,3.82,14.741,5.949,22.05A210.982,210.982,0,0,0,263.858,445.4C264.089,445.773,264.375,446.116,264.634,446.472Z" transform="translate(76.086 -189.392)" fill="#fff"/>
      <path id="Path_6324" data-name="Path 6324" d="M379.431,361.129c-.833-1.221-.522-2.563-.349-3.861a75,75,0,0,0,.5-10.02,2.869,2.869,0,0,0-.958-2.213c-1.782-1.741-3.5-3.555-5.429-5.541-.009,1.087-.172,1.808-1.1,1.775-.876-.034-.757-.805-.88-1.4a62.133,62.133,0,0,0-9.614-22.943,10.892,10.892,0,0,0-2.375-2.528c-1.268-.964-2.013-.787-2.757.61a3.876,3.876,0,0,0-.041,3.1c1.217,3.991,2.821,7.865,3.658,11.974.185.912.735,1.948.47,2.7-.272.779-1.573.524-2.4.83-2.06.77-4.105,1.573-5.4,3.481-.785,1.158-1.5,2.334-.246,3.764a7.13,7.13,0,0,1,.977,2.45.83.83,0,0,1-.595,1.156.92.92,0,0,1-1.223-.516,16.32,16.32,0,0,1-.844-2.383c-.211-.91-.6-.867-1.277-.483a10.273,10.273,0,0,0-5.127,8.013c-.108.748-.164,1.5-.242,2.254,1.553-.766,1.521-.764,1.627,1.165a11.13,11.13,0,0,0,.427,2.757c.114.363.311.858-.228,1.022s-.768-.3-.923-.735a7.27,7.27,0,0,1-.332-2.23c-.017-.462.1-1-.442-1.3a.1.1,0,0,0-.089.032.428.428,0,0,0-.043.125,2.1,2.1,0,0,1-.013,1.43,5.8,5.8,0,0,0-.222,2.767c.14,1.9.727,2.418,2.573,2.01,1.064-.237,1.229.13,1.413,1.018,1.1,5.274,1.657,10.624,2.407,15.949.494,3.512.651,7.092,1.89,10.47,6.484-9.931,15.8-16.791,25.365-23.376C378.217,362.027,378.819,361.571,379.431,361.129Z" transform="translate(-234.391 -229.122)" fill="#fff"/>
      <path id="Path_6325" data-name="Path 6325" d="M306.1,383.958a41.154,41.154,0,0,0-12.437,2.809c-.863.334-1.516.9-1.176,1.926.373,1.122,1.3,1.128,2.209.785a39.327,39.327,0,0,1,9.528-2.422c.8-.088,1.6-.138,2.4-.164,1.365-.047,2.176-.595,2.058-1.534-.145-1.184-.984-1.484-2.045-1.4C306.461,383.97,306.28,383.956,306.1,383.958Z" transform="translate(-67.514 -168.493)" fill="#1c1d29"/>
      <path id="Path_6326" data-name="Path 6326" d="M353.058,327.13c-.889-3.33-4.944-7.416-7.489-7.492C348.067,322.138,350.673,324.746,353.058,327.13Z" transform="translate(-211.004 -224.068)" fill="#f4f3f6"/>
      <path id="Path_6327" data-name="Path 6327" d="M361.443,335.342a24.77,24.77,0,0,0,.6,3.771c.268.781.723,1.12,1.491.891.792-.241.589-.843.406-1.419a8.209,8.209,0,0,1-.419-3.785c.114-.744-.078-1.348-.919-1.5-.936-.164-1.025.55-1.161,1.2C361.445,334.781,361.443,335.062,361.443,335.342Z" transform="translate(-251.65 -212.276)" fill="#151446"/>
      <path id="Path_6328" data-name="Path 6328" d="M277.5,323.985c1.07-1.12,2.086-2.207,3.126-3.268.524-.531,1.1-1.288,1.892-.5s.058,1.352-.488,1.877a55.5,55.5,0,0,0-6.48,7.981c-2.552,3.578-2.707,7.63-2.524,11.668.377,8.371,5.477,13.147,12.861,15.971a24.759,24.759,0,0,0,14.183,1.07,2.345,2.345,0,0,0,.462-.255c-3.514-2.8-6.21-6.105-7.356-10.775a14.421,14.421,0,0,0,10.921,3.57c5.852-.449,10.039-3.531,11.016-9.523a8.212,8.212,0,0,0-5.048-8.958,20.508,20.508,0,0,0-13.607-.759c-1.2.3-1.508-.1-1.749-1.025a9.487,9.487,0,0,1,.211-3.98,6.479,6.479,0,0,0-1.137-4.8c-1.971-2.981-4.342-5.66-6.413-8.564-.287-.4-.524-.487-.958-.183a27.926,27.926,0,0,0-8.967,10.108C277.412,323.7,277.466,323.8,277.5,323.985Z" transform="translate(-37.827 -229.506)" fill="#fff"/>
      <path id="Path_6329" data-name="Path 6329" d="M387.52,428.414c4.825,0,9.655-.116,14.474.045a15.463,15.463,0,0,0,7.7-1.683c2.112-1.066,2.144-1,1.2-3.128q-7.427-16.734-14.836-33.477c-.39-.884-.647-1.13-1.659-.677q-17.248,7.732-34.558,15.334c-.776.343-1.076.606-.664,1.519q4.754,10.562,9.4,21.171a1.393,1.393,0,0,0,1.529.914C375.906,428.4,381.713,428.414,387.52,428.414Z" transform="translate(-294.44 -163.886)" fill="#fff"/>
      <path id="Path_6330" data-name="Path 6330" d="M371.459,364.788c0,8.809.019,17.617-.026,26.426-.006,1.014.254,1.234,1.245,1.232q26.49-.048,52.978,0c.986,0,1.266-.211,1.264-1.236q-.053-26.493,0-52.986c0-1.055-.276-1.331-1.335-1.329q-26.423.05-52.844,0c-1.081,0-1.309.309-1.3,1.335C371.476,347.081,371.459,355.935,371.459,364.788Z" transform="translate(-333.085 -209.155)" fill="#fff"/>
      <path id="Path_6331" data-name="Path 6331" d="M399.515,360.562V371.83c0,2.946,0,2.946-2.973,2.946-9.92,0-19.839.015-29.757-.024-1,0-1.38.257-1.488,1.273a34.689,34.689,0,0,0,1.3,13.093,56.478,56.478,0,0,0,3.965,10.17c.356.71.66.859,1.2.233a1.687,1.687,0,0,1,.306-.259,6.066,6.066,0,0,0,2.677-4.758c.848-7.636,7.366-12.334,14.922-11.113.753.121,1.078-.287,1.482-.636q7.357-6.323,14.69-12.679c.337-.291.677-.582,1.02-.867,2.164-1.8,2.17-1.806.052-3.583A44.474,44.474,0,0,0,399.515,360.562Z" transform="translate(-302.897 -188.699)" fill="#fff"/>
      <path id="Path_6332" data-name="Path 6332" d="M371.158,384.269a9.824,9.824,0,0,0,10.227,9.724,9.9,9.9,0,1,0-10.227-9.724Z" transform="translate(-296.567 -176.92)" fill="#fff"/>
      <path id="Path_6333" data-name="Path 6333" d="M355.661,330.42c.539-.076,1.068-.285.738-1.178-.431-1.163-.83-2.34-1.273-3.5a1,1,0,0,0-1.357-.718c-.675.254-.751.748-.472,1.411.433,1.018.772,2.075,1.154,3.115A1.118,1.118,0,0,0,355.661,330.42Z" transform="translate(-228.572 -219.481)" fill="#161447"/>
      <path id="Path_6334" data-name="Path 6334" d="M281.193,326.313a9.782,9.782,0,0,0-4.232.912c-.5.252-.958.556-.619,1.238a.98.98,0,0,0,1.428.528,7.551,7.551,0,0,1,9.021,1.851c.459.468.969.749,1.488.2a1.068,1.068,0,0,0-.084-1.557A9.3,9.3,0,0,0,281.193,326.313Z" transform="translate(-17.25 -218.299)" fill="#141345"/>
      <path id="Path_6335" data-name="Path 6335" d="M288.044,320.057a1.881,1.881,0,0,0,2.028,1.823,1.792,1.792,0,0,0,1.734-1.943,1.911,1.911,0,0,0-1.849-1.874A1.989,1.989,0,0,0,288.044,320.057Z" transform="translate(-42.509 -225.429)" fill="#141446"/>
      <g id="Group_570" data-name="Group 570" transform="translate(45.798 142.279)">
        <path id="Path_6336" data-name="Path 6336" d="M395.645,351.036c-6.081,0-12.161.009-18.242-.009-1.042,0-1.967.144-1.963,1.413s.94,1.443,1.971,1.443q18.308-.008,36.616,0c1.022,0,1.993-.192,1.978-1.441-.013-1.225-.932-1.419-1.985-1.415C407.895,351.047,401.769,351.036,395.645,351.036Z" transform="translate(-375.436 -339.221)" fill="#1c1d29"/>
        <path id="Path_6337" data-name="Path 6337" d="M395.778,344.7c-6.212,0-12.423.011-18.635-.011-1.085,0-1.775.39-1.71,1.519.058,1,.761,1.26,1.7,1.257,5.9-.024,11.8-.013,17.7-.013q9.72,0,19.439.006a1.52,1.52,0,0,0,1.583-.736,1.355,1.355,0,0,0-.138-1.5c-.38-.576-.982-.518-1.566-.518Q404.96,344.705,395.778,344.7Z" transform="translate(-375.428 -344.693)" fill="#1c1d29"/>
        <path id="Path_6338" data-name="Path 6338" d="M388.241,357.367c-3.57,0-7.14.015-10.71-.007-1.081-.008-2.1.155-2.088,1.456.009,1.208.971,1.406,2.013,1.4q10.979-.025,21.955,0c1.046,0,1.978-.209,1.943-1.443-.034-1.2-.947-1.424-2-1.417C395.647,357.384,391.943,357.367,388.241,357.367Z" transform="translate(-360.791 -333.747)" fill="#1c1d29"/>
        <path id="Path_6339" data-name="Path 6339" d="M396.828,360.2c1.2,0,2.4.013,3.609,0,.91-.013,1.555-.343,1.551-1.4,0-1.029-.587-1.428-1.527-1.43-2.407-.008-4.812,0-7.218-.006-.954,0-1.57.434-1.581,1.4s.611,1.426,1.557,1.432C394.421,360.208,395.626,360.2,396.828,360.2Z" transform="translate(-391.662 -333.741)" fill="#1c1d29"/>
      </g>
      <g id="Group_571" data-name="Group 571" transform="translate(94.949 296.438)">
        <path id="Path_6340" data-name="Path 6340" d="M369.28,433.728c-6.079,0-12.161.009-18.24-.009-1.044,0-1.969.144-1.965,1.413s.941,1.443,1.972,1.441q18.305-.008,36.614,0c1.022,0,1.993-.19,1.978-1.439-.013-1.225-.93-1.419-1.985-1.415C381.53,433.739,375.4,433.728,369.28,433.728Z" transform="translate(-349.071 -421.913)" fill="#131245"/>
        <path id="Path_6341" data-name="Path 6341" d="M369.413,427.394c-6.212,0-12.423.011-18.635-.009-1.085,0-1.775.39-1.71,1.519.058,1,.761,1.26,1.7,1.255,5.9-.022,11.8-.011,17.7-.011q9.717,0,19.437.006a1.52,1.52,0,0,0,1.583-.736,1.352,1.352,0,0,0-.138-1.5c-.38-.576-.982-.52-1.566-.52Q378.594,427.4,369.413,427.394Z" transform="translate(-349.062 -427.385)" fill="#131245"/>
        <path id="Path_6342" data-name="Path 6342" d="M361.876,440.06c-3.57,0-7.14.015-10.71-.007-1.081-.007-2.1.153-2.088,1.456.011,1.208.971,1.406,2.013,1.4q10.979-.022,21.955,0c1.048,0,1.978-.209,1.943-1.443-.034-1.2-.947-1.426-2-1.419C369.284,440.077,365.58,440.06,361.876,440.06Z" transform="translate(-334.426 -416.44)" fill="#131245"/>
        <path id="Path_6343" data-name="Path 6343" d="M370.463,442.894c1.2,0,2.407.013,3.609,0,.91-.011,1.555-.341,1.551-1.4,0-1.031-.587-1.428-1.527-1.43-2.4-.009-4.812,0-7.217-.006-.956,0-1.57.432-1.583,1.4s.611,1.424,1.557,1.432C368.058,442.9,369.261,442.894,370.463,442.894Z" transform="translate(-365.297 -416.433)" fill="#131245"/>
      </g>
    </g>
  </g>
</svg>
