<svg xmlns="http://www.w3.org/2000/svg" width="77.407" height="57.214" viewBox="0 0 77.407 57.214">
  <g id="Group_574" data-name="Group 574" transform="translate(-685 -586)">
    <path id="Path_97" data-name="Path 97" d="M42.7,16A23.329,23.329,0,0,0,19.671,34.957a19.3,19.3,0,0,0,3.681,38.257H64.579a16.781,16.781,0,0,0,1.525-33.5A23.3,23.3,0,0,0,42.7,16Z" transform="translate(681 570)" fill="#848593"/>
    <path id="Path_98" data-name="Path 98" d="M47.779,40a2.262,2.262,0,0,0-1.709.657l-9.255,8.414a2.548,2.548,0,0,0-.158,3.576,2.642,2.642,0,0,0,3.576.158l5.022-4.575V64.4a2.524,2.524,0,0,0,5.048,0V48.23L55.326,52.8a2.7,2.7,0,0,0,3.576-.158,2.541,2.541,0,0,0-.158-3.576l-9.255-8.414A2.128,2.128,0,0,0,47.779,40Z" transform="translate(675.925 566.193)" fill="#fff"/>
  </g>
</svg>
